<svg width="120" height="67" viewBox="0 0 120 67" fill="none" xmlns="http://www.w3.org/2000/svg">
<g clip-path="url(#clip0_1222_6)">
<path fill-rule="evenodd" clip-rule="evenodd" d="M0.0859375 1.46031C0.0859375 1.46031 0.327821 0.0358806 1.93814 0.398706C3.55294 0.759292 14.0973 9.39992 14.0973 9.39992C14.0973 9.39992 19.7524 13.1805 19.898 19.1559C20.0682 26.0182 19.898 64.5741 19.898 64.5741C19.898 64.5741 19.8219 65.7454 18.9103 66.0567C17.9988 66.3703 16.5452 65.125 16.5452 65.125L4.40625 56.2492C4.40625 56.2492 0.0859375 53.0375 0.0859375 48.2447V1.46031Z" fill="url(#paint0_linear_1222_6)"/>
<path fill-rule="evenodd" clip-rule="evenodd" d="M42.2281 1.46025C42.2281 1.46025 41.9885 0.0358196 40.3737 0.398645C38.7656 0.759231 28.219 9.39986 28.219 9.39986C28.219 9.39986 22.5616 13.1804 22.4116 19.1558C22.2414 26.0182 22.4116 64.574 22.4116 64.574C22.4116 64.574 22.49 65.7453 23.3993 66.0567C24.3086 66.3702 25.7711 65.125 25.7711 65.125L37.9033 56.2492C37.9033 56.2492 42.2259 53.0375 42.2259 48.2424V1.46025H42.2281Z" fill="url(#paint1_linear_1222_6)"/>
<path d="M52.2633 49.3511C51.7168 49.3511 51.13 49.3332 50.5029 49.2996C49.878 49.266 49.2912 49.2235 48.7448 49.172C48.1983 49.1204 47.7481 49.0779 47.3965 49.0443V30.6858C47.7683 30.6343 48.2408 30.5872 48.8187 30.5447C49.3943 30.5021 49.9923 30.4685 50.6082 30.4416C51.2241 30.417 51.775 30.4036 52.2655 30.4036C54.7291 30.4036 56.756 30.7821 58.3507 31.5391C59.9431 32.2961 61.1256 33.3778 61.8983 34.7821C62.671 36.1864 63.0562 37.8684 63.0562 39.8236C63.0562 46.173 59.4593 49.3467 52.2655 49.3467L52.2633 49.3511ZM58.6105 33.9422C57.0562 32.7082 54.9016 32.09 52.1446 32.09C51.6944 32.09 51.2106 32.099 50.6933 32.1147C50.1759 32.1326 49.7504 32.1662 49.4167 32.2177V47.5124C49.7683 47.546 50.1826 47.5796 50.6619 47.6154C51.1412 47.649 51.6339 47.6669 52.1423 47.6669C53.9408 47.6669 55.4996 47.4295 56.8188 46.9524C58.1379 46.4754 59.1547 45.6579 59.8692 44.5023C60.5836 43.3443 60.9397 41.7609 60.9397 39.7542C60.9397 37.1158 60.1626 35.1808 58.6082 33.9467L58.6105 33.9422Z" fill="black"/>
<path d="M68.0076 37.4516H66.1308C66.1106 37.3665 66.0972 37.2635 66.086 37.1448C66.077 37.0261 66.0703 36.8984 66.0703 36.7618C66.0703 36.6252 66.0748 36.4908 66.086 36.3542C66.095 36.2176 66.1106 36.1078 66.1308 36.0227H69.9427V49.0441C69.8262 49.0621 69.665 49.0733 69.4589 49.0822C69.2529 49.0912 69.0916 49.0957 68.9752 49.0957C68.8766 49.0957 68.7198 49.0912 68.5071 49.0822C68.2921 49.0733 68.1263 49.0598 68.0076 49.0441V37.4516ZM66.9953 32.2691C66.9841 32.0473 66.9796 31.8614 66.9796 31.7069C66.9796 31.5703 66.9841 31.4001 66.9953 31.1963C67.0043 30.9924 67.0199 30.8222 67.0401 30.6856C67.217 30.6677 67.4298 30.6565 67.6851 30.6475C67.9382 30.6386 68.1532 30.6341 68.3301 30.6341C68.4869 30.6341 68.6818 30.6386 68.9169 30.6475C69.1521 30.6565 69.3469 30.6699 69.5037 30.6856C69.5239 30.8222 69.5373 30.9924 69.5485 31.1963C69.5575 31.4001 69.5619 31.5703 69.5619 31.7069C69.5619 31.8592 69.5575 32.0473 69.5485 32.2691C69.5396 32.4908 69.5239 32.6767 69.5037 32.8312C69.3469 32.8491 69.1521 32.8603 68.9169 32.8693C68.6818 32.8782 68.4869 32.8827 68.3301 32.8827C68.1532 32.8827 67.9382 32.8782 67.6851 32.8693C67.4298 32.8603 67.217 32.8491 67.0401 32.8312C67.0199 32.6789 67.0065 32.4908 66.9953 32.2691Z" fill="black"/>
<path d="M75.7473 37.4516H73.8705C73.8503 37.3665 73.8369 37.2635 73.8257 37.1448C73.8167 37.0261 73.81 36.8984 73.81 36.7618C73.81 36.6252 73.8145 36.4908 73.8257 36.3542C73.8347 36.2176 73.8503 36.1078 73.8705 36.0227H77.6824V50.1416C77.6824 51.0778 77.4808 51.8056 77.0822 52.3253C76.6813 52.8449 76.1729 53.2054 75.557 53.4092C74.9411 53.6131 74.3005 53.7161 73.6353 53.7161C73.0284 53.7161 72.5312 53.6825 72.1392 53.6131C71.7473 53.5459 71.4158 53.4608 71.1426 53.3577C71.1829 53.1696 71.2411 52.9367 71.3195 52.6567C71.3979 52.3768 71.4852 52.1506 71.5838 51.9803C71.8973 52.099 72.2243 52.1707 72.567 52.1976C72.9097 52.2222 73.2367 52.2357 73.5502 52.2357C73.8235 52.2357 74.1325 52.1976 74.473 52.1214C74.8156 52.0453 75.1135 51.8706 75.3666 51.5974C75.6197 51.3241 75.7473 50.8986 75.7473 50.3208V37.4516ZM74.5894 32.2691C74.5805 32.0473 74.5737 31.8614 74.5737 31.7069C74.5737 31.5703 74.5782 31.4001 74.5894 31.1963C74.5984 30.9924 74.6141 30.8222 74.6342 30.6856C74.8111 30.6677 75.0262 30.6565 75.2792 30.6475C75.5323 30.6386 75.7473 30.6341 75.9243 30.6341C76.081 30.6341 76.2759 30.6386 76.5111 30.6475C76.7462 30.6565 76.9411 30.6699 77.0978 30.6856C77.118 30.8222 77.1314 30.9924 77.1426 31.1963C77.1516 31.4001 77.1583 31.5703 77.1583 31.7069C77.1583 31.8592 77.1538 32.0473 77.1426 32.2691C77.1337 32.4908 77.118 32.6767 77.0978 32.8312C76.9411 32.8491 76.7462 32.8603 76.5111 32.8693C76.2759 32.8782 76.081 32.8827 75.9243 32.8827C75.7473 32.8827 75.5323 32.8782 75.2792 32.8693C75.0239 32.8603 74.8111 32.8491 74.6342 32.8312C74.6141 32.6789 74.6006 32.4908 74.5894 32.2691Z" fill="black"/>
<path d="M83.3436 37.4516H81.4667C81.4466 37.3665 81.4331 37.2635 81.4219 37.1448C81.413 37.0261 81.4062 36.8984 81.4062 36.7618C81.4062 36.6252 81.4107 36.4908 81.4219 36.3542C81.4309 36.2176 81.4466 36.1078 81.4667 36.0227H85.2786V49.0441C85.1622 49.0621 85.0009 49.0733 84.7949 49.0822C84.5888 49.0912 84.4276 49.0957 84.3111 49.0957C84.2126 49.0957 84.0558 49.0912 83.843 49.0822C83.628 49.0733 83.4623 49.0598 83.3436 49.0441V37.4516ZM82.3312 32.2691C82.3223 32.0473 82.3156 31.8614 82.3156 31.7069C82.3156 31.5703 82.32 31.4001 82.3312 31.1963C82.3402 30.9924 82.3559 30.8222 82.376 30.6856C82.553 30.6677 82.768 30.6565 83.021 30.6475C83.2741 30.6386 83.4891 30.6341 83.6661 30.6341C83.8228 30.6341 84.0177 30.6386 84.2529 30.6475C84.488 30.6565 84.6829 30.6699 84.8397 30.6856C84.8598 30.8222 84.8733 30.9924 84.8844 31.1963C84.8934 31.4001 84.9001 31.5703 84.9001 31.7069C84.9001 31.8592 84.8956 32.0473 84.8844 32.2691C84.8755 32.4908 84.8598 32.6767 84.8397 32.8312C84.6829 32.8491 84.488 32.8603 84.2529 32.8693C84.0177 32.8782 83.8228 32.8827 83.6661 32.8827C83.4891 32.8827 83.2741 32.8782 83.021 32.8693C82.7657 32.8603 82.553 32.8491 82.376 32.8312C82.3559 32.6789 82.3424 32.4908 82.3312 32.2691Z" fill="black"/>
<path d="M90.7032 37.4517H88.1523C88.1321 37.3666 88.1187 37.2569 88.1075 37.1203C88.0985 36.9836 88.0918 36.8492 88.0918 36.7126C88.0918 36.576 88.0963 36.4484 88.1075 36.3296C88.1164 36.2109 88.1321 36.1079 88.1523 36.0228H90.7032V33.5726L92.5219 32.0161H92.6383V36.0251H96.6854C96.7055 36.1102 96.719 36.2132 96.7302 36.3319C96.7391 36.4506 96.7459 36.5783 96.7459 36.7149C96.7459 36.8515 96.7414 36.9881 96.7302 37.1225C96.7212 37.2591 96.7055 37.3689 96.6854 37.454H92.6383V45.9311C92.6383 46.4932 92.7458 46.9098 92.9608 47.1831C93.1758 47.4563 93.4536 47.6332 93.7962 47.7183C94.1389 47.8034 94.486 47.846 94.8377 47.846C95.5409 47.846 96.1367 47.7699 96.6272 47.6153C96.7055 47.837 96.7683 48.0655 96.8175 48.3051C96.8668 48.5425 96.9004 48.7911 96.9206 49.0465C96.177 49.2324 95.3573 49.3264 94.4569 49.3264C93.3438 49.3264 92.439 49.0666 91.7447 48.547C91.0504 48.0274 90.7032 47.1808 90.7032 46.0072V37.454V37.4517Z" fill="black"/>
<path d="M109.732 48.8135C109.047 48.9322 108.218 49.0509 107.239 49.1718C106.261 49.2906 105.333 49.351 104.453 49.351C102.635 49.351 101.204 49.0352 100.158 48.4059C99.1117 47.7765 98.5898 46.7552 98.5898 45.342C98.5898 43.9288 99.161 42.903 100.305 42.1639C101.45 41.4226 102.919 41.0531 104.718 41.0531C105.421 41.0531 106.028 41.0755 106.536 41.1158C107.045 41.1583 107.463 41.1964 107.797 41.23V40.4394C107.797 39.3151 107.495 38.4954 106.888 37.9758C106.281 37.4562 105.383 37.1964 104.191 37.1964C103.41 37.1964 102.695 37.2434 102.05 37.3375C101.405 37.4315 100.827 37.5457 100.321 37.6824C100.223 37.5301 100.14 37.3083 100.073 37.0194C100.003 36.7305 99.9695 36.4573 99.9695 36.2019C100.478 36.0653 101.103 35.9511 101.846 35.857C102.59 35.763 103.351 35.7159 104.133 35.7159C106.028 35.7159 107.437 36.0788 108.355 36.7999C109.273 37.5234 109.732 38.6589 109.732 40.2087V48.8135ZM106.55 42.5962C106.05 42.5536 105.578 42.5312 105.127 42.5312C103.66 42.5312 102.527 42.7709 101.725 43.2457C100.924 43.7227 100.523 44.4036 100.523 45.2883C100.523 46.0363 100.729 46.594 101.139 46.9613C101.548 47.3264 102.066 47.5705 102.693 47.6892C103.318 47.8079 103.934 47.8684 104.541 47.8684C105.148 47.8684 105.714 47.8437 106.241 47.7922C106.769 47.7407 107.286 47.6735 107.795 47.5884V42.7127C107.463 42.6791 107.047 42.641 106.55 42.5984V42.5962Z" fill="black"/>
<path d="M114.189 30.2781C114.306 30.2625 114.467 30.249 114.673 30.2401C114.879 30.2311 115.041 30.2266 115.157 30.2266C115.256 30.2266 115.41 30.2311 115.625 30.2401C115.84 30.249 116.006 30.2625 116.125 30.2781V46.0319C116.125 46.6098 116.223 47.0286 116.418 47.2839C116.613 47.5392 116.852 47.696 117.137 47.7565C117.419 47.817 117.679 47.8461 117.914 47.8461C118.402 47.8461 118.823 47.8035 119.175 47.7184C119.273 47.9222 119.341 48.1439 119.381 48.3813C119.419 48.621 119.448 48.8405 119.468 49.0443C119.195 49.1294 118.886 49.1876 118.546 49.2235C118.203 49.2571 117.885 49.275 117.594 49.275C117.047 49.275 116.51 49.1988 115.981 49.0443C115.453 48.892 115.023 48.6098 114.691 48.2022C114.357 47.7946 114.192 47.1988 114.192 46.4149V30.2781H114.189Z" fill="black"/>
<path d="M46.8089 7.78296H49.9153V17.0283L57.1696 7.78296H60.9188L54.3857 15.8726L61.2122 26.5961H57.5167L52.2423 18.3452L49.9131 21.1672V26.5961H46.8066V7.78296H46.8089Z" fill="black"/>
<path d="M61.1602 22.5089V22.3745C61.1602 19.3107 63.1938 17.8056 66.1927 17.8056C67.532 17.8056 68.4951 18.0475 69.4581 18.37V17.7787C69.4581 15.8705 68.3338 14.8761 66.4054 14.8761C65.0393 14.8761 63.9149 15.3062 62.9788 15.7362L62.121 13.3173C63.4872 12.6454 64.9049 12.1885 66.8063 12.1885C68.7078 12.1885 70.0718 12.6992 70.9833 13.6398C71.9195 14.5805 72.4033 15.978 72.4033 17.7519V26.5941H69.4312V24.8471C68.6003 26.0565 67.3439 26.8628 65.4961 26.8628C63.14 26.8628 61.1602 25.2771 61.1602 22.5089ZM69.485 21.8101V20.3857C68.7885 20.0901 67.8791 19.8751 66.8623 19.8751C65.1221 19.8751 64.1053 20.762 64.1053 22.267V22.3208C64.1053 23.7452 65.0952 24.5515 66.4077 24.5784C68.1479 24.6052 69.4872 23.4227 69.4872 21.8101H69.485Z" fill="black"/>
<path d="M75.0286 23.1538V14.9566H73.4766V12.3497H75.0286V8.50641H78.0544V12.3497H81.2392V14.9566H78.0544V22.5357C78.0544 23.6376 78.6166 24.0945 79.5796 24.0945C80.1687 24.0945 80.704 23.9601 81.2124 23.6913V26.1908C80.5158 26.5671 79.714 26.8089 78.695 26.8089C76.6076 26.8089 75.0264 25.922 75.0264 23.1538H75.0286Z" fill="black"/>
<path d="M83.0332 12.3494H86.059V26.5937H83.0332V12.3494Z" fill="black"/>
<path d="M88.709 7.19171H91.7348V26.5962H88.709V7.19171Z" fill="black"/>
<path d="M94.3848 12.3494H97.4106V26.5937H94.3848V12.3494Z" fill="black"/>
<path d="M99.9007 12.3495H102.926V14.419C103.757 13.1558 104.855 12.0807 106.727 12.0807C108.467 12.0807 109.726 12.9677 110.396 14.3652C111.359 13.0752 112.644 12.0807 114.546 12.0807C117.168 12.0807 118.884 13.8277 118.884 17.0528V26.5938H115.858V17.9397C115.858 15.8971 115 14.8221 113.448 14.8221C111.975 14.8221 110.904 15.9509 110.904 17.9666V26.5938H107.878V17.9128C107.878 15.8971 106.996 14.8221 105.495 14.8221C103.995 14.8221 102.924 16.0315 102.924 17.9935V26.5938H99.8984V12.3495H99.9007Z" fill="black"/>
</g>
<defs>
<linearGradient id="paint0_linear_1222_6" x1="10.03" y1="66.1105" x2="10.03" y2="0.340472" gradientUnits="userSpaceOnUse">
<stop offset="0.38" stop-color="#B71918"/>
<stop offset="1" stop-color="#E30613"/>
</linearGradient>
<linearGradient id="paint1_linear_1222_6" x1="32.284" y1="0.340414" x2="32.284" y2="0.340414" gradientUnits="userSpaceOnUse">
<stop offset="0.38" stop-color="#B71918"/>
<stop offset="1" stop-color="#E30613"/>
</linearGradient>
<clipPath id="clip0_1222_6">
<rect width="119.381" height="65.77" fill="white" transform="translate(0.0859375 0.340576)"/>
</clipPath>
</defs>
</svg>
